<svg xmlns="http://www.w3.org/2000/svg" width="64" height="64" fill="none">
  <path fill="#000" fill-rule="evenodd" d="M26.5 7.1c.5.3.6 1 .4 1.4l-4.5 7.8a1 1 0 0 1-1.7-1l3.1-5.5a24.2 24.2 0 0 0-10 36.7c3.1 4.2 7.5 7.2 12.5 8.5l-.6 2a25.3 25.3 0 0 1-13.5-9.3 26.2 26.2 0 0 1 11.3-40l-5.8-3.3a1 1 0 0 1 1-1.7L26.5 7Zm11 49.8a1 1 0 0 1-.4-1.4l4.5-7.8a1 1 0 1 1 1.7 1l-3.1 5.5a24.2 24.2 0 0 0 10-36.7A23.3 23.3 0 0 0 37.7 9l.6-2a25.3 25.3 0 0 1 13.5 9.3 26.2 26.2 0 0 1-11.3 40l5.8 3.3a1 1 0 1 1-1 1.7L37.5 57ZM27 25 39 32l-12 7V25Zm14.5 6a1 1 0 0 1 0 1.8l-15 8.6a1 1 0 0 1-1.5-.8V23.3a1 1 0 0 1 1.5-.8l15 8.6Z" clip-rule="evenodd"/>
</svg>
