<svg width="16" height="16" viewBox="0 0 16 16" fill="none" xmlns="http://www.w3.org/2000/svg">
    <style type="text/css">
        @media (prefers-color-scheme: dark) {
            path {
            fill: white;
          }
        }
    </style>
    <path fill-rule="evenodd" clip-rule="evenodd" d="M5 0C2.23858 0 0 2.23858 0 5V9C0 9.55229 0.447715 10 1 10H3.5C3.77614 10 4 9.77614 4 9.5V6C4 4.89543 4.89543 4 6 4H9.5C9.77614 4 10 3.77614 10 3.5V1C10 0.447715 9.55228 0 9 0H5ZM6 7C6 6.44772 6.44772 6 7 6H9.5C9.77614 6 10 6.22386 10 6.5V9C10 9.55229 9.55229 10 9 10H6.5C6.22386 10 6 9.77614 6 9.5V7ZM16 11C16 13.7614 13.7614 16 11 16L7 16C6.44772 16 6 15.5523 6 15L6 12.5C6 12.2239 6.22386 12 6.5 12L10 12C11.1046 12 12 11.1046 12 10V6.5C12 6.22386 12.2239 6 12.5 6L15 6C15.5523 6 16 6.44771 16 7V11Z" fill="DimGrey" />
</svg>
