<svg width="24" height="24" viewBox="0 0 24 24" fill="none" xmlns="http://www.w3.org/2000/svg">
    <mask id="path-1-inside-1_483_650" fill="white">
    <path fill-rule="evenodd" clip-rule="evenodd" d="M6.45589 7.00008C6.71721 7.00008 6.96815 6.89778 7.155 6.71509L11.3009 2.66134C11.934 2.04227 13 2.49085 13 3.37635V20.6236C13 21.5091 11.934 21.9577 11.3009 21.3386L7.15521 17.2851C6.96836 17.1024 6.71742 17.0001 6.45609 17.0001H1C0.447715 17.0001 0 16.5524 0 16.0001V8.00008C0 7.4478 0.447714 7.00008 0.999999 7.00008H6.45589ZM15.5355 7.05033C15.9261 6.65981 16.5592 6.65981 16.9497 7.05033C17.5998 7.70034 18.1154 8.47202 18.4672 9.32129C18.8189 10.1706 19 11.0808 19 12.0001C19 12.9193 18.8189 13.8296 18.4672 14.6789C18.1154 15.5281 17.5998 16.2998 16.9497 16.9498C16.5592 17.3404 15.9261 17.3404 15.5355 16.9498C15.145 16.5593 15.145 15.9261 15.5355 15.5356C15.9998 15.0713 16.3681 14.5201 16.6194 13.9135C16.8707 13.3069 17 12.6567 17 12.0001C17 11.3435 16.8707 10.6933 16.6194 10.0867C16.3681 9.48003 15.9998 8.92884 15.5355 8.46455C15.145 8.07402 15.145 7.44086 15.5355 7.05033ZM18 1.60777C17.5217 1.33163 16.9101 1.49551 16.634 1.9738C16.3578 2.45209 16.5217 3.06368 17 3.33983C18.5202 4.21751 19.7826 5.47989 20.6603 7.00008C21.5379 8.52027 22 10.2447 22 12.0001C22 13.7554 21.5379 15.4799 20.6603 17.0001C19.7826 18.5203 18.5202 19.7826 17 20.6603C16.5217 20.9365 16.3578 21.5481 16.634 22.0264C16.9101 22.5047 17.5217 22.6685 18 22.3924C19.8242 21.3392 21.3391 19.8243 22.3923 18.0001C23.4455 16.1758 24 14.1065 24 12.0001C24 9.89364 23.4455 7.82431 22.3923 6.00008C21.3391 4.17585 19.8242 2.66099 18 1.60777Z"/>
    </mask>
    <path d="M16.9497 7.05033L15.5355 8.46454L15.5355 8.46455L16.9497 7.05033ZM15.5355 7.05033L14.1213 5.63612L14.1213 5.63612L15.5355 7.05033ZM18.4672 9.32129L16.6194 10.0867L16.6194 10.0867L18.4672 9.32129ZM18.4672 14.6789L16.6194 13.9135L16.6194 13.9135L18.4672 14.6789ZM16.9497 16.9498L15.5355 15.5356L15.5355 15.5356L16.9497 16.9498ZM15.5355 16.9498L16.9497 15.5356L16.9497 15.5356L15.5355 16.9498ZM16.6194 13.9135L18.4672 14.6789L18.4672 14.6789L16.6194 13.9135ZM16.6194 10.0867L14.7716 10.852L14.7716 10.852L16.6194 10.0867ZM15.5355 8.46455L14.1213 9.87876L14.1213 9.87876L15.5355 8.46455ZM16.634 1.9738L14.9019 0.9738L14.9019 0.973801L16.634 1.9738ZM18 1.60777L17 3.33983L17 3.33983L18 1.60777ZM17 3.33983L18 1.60777L18 1.60777L17 3.33983ZM20.6603 7.00008L18.9282 8.00008L18.9282 8.00008L20.6603 7.00008ZM20.6603 17.0001L18.9282 16.0001L18.9282 16.0001L20.6603 17.0001ZM17 20.6603L18 22.3924L18 22.3924L17 20.6603ZM16.634 22.0264L14.9019 23.0264L14.9019 23.0264L16.634 22.0264ZM18 22.3924L19 24.1244L19 24.1244L18 22.3924ZM22.3923 18.0001L24.1244 19.0001L24.1244 19.0001L22.3923 18.0001ZM22.3923 6.00008L20.6603 7.00008L20.6603 7.00008L22.3923 6.00008ZM11.3009 21.3386L12.6991 19.9086L11.3009 21.3386ZM7.155 6.71509L5.75677 5.28507L7.155 6.71509ZM11.3009 2.66134L12.6991 4.09135L11.3009 2.66134ZM9.90265 1.23133L5.75677 5.28507L8.55324 8.1451L12.6991 4.09135L9.90265 1.23133ZM15 20.6236V3.37635H11V20.6236H15ZM5.75697 18.7151L9.90265 22.7686L12.6991 19.9086L8.55344 15.8551L5.75697 18.7151ZM1 19.0001H6.45609V15.0001H1V19.0001ZM-2 8.00008V16.0001H2V8.00008H-2ZM6.45589 5.00008H0.999999V9.00008H6.45589V5.00008ZM18.364 5.63612C17.1924 4.46454 15.2929 4.46455 14.1213 5.63612L16.9497 8.46455C16.5592 8.85507 15.9261 8.85507 15.5355 8.46454L18.364 5.63612ZM20.3149 8.55593C19.8626 7.464 19.1997 6.47185 18.364 5.63612L15.5355 8.46455C15.9998 8.92884 16.3681 9.48003 16.6194 10.0867L20.3149 8.55593ZM21 12.0001C21 10.8182 20.7672 9.64786 20.3149 8.55593L16.6194 10.0867C16.8707 10.6933 17 11.3435 17 12.0001H21ZM20.3149 15.4442C20.7672 14.3523 21 13.182 21 12.0001H17C17 12.6567 16.8707 13.3069 16.6194 13.9135L20.3149 15.4442ZM18.364 18.364C19.1997 17.5283 19.8626 16.5362 20.3149 15.4442L16.6194 13.9135C16.3681 14.5201 15.9998 15.0713 15.5355 15.5356L18.364 18.364ZM14.1213 18.364C15.2929 19.5356 17.1924 19.5356 18.364 18.364L15.5355 15.5356C15.9261 15.1451 16.5592 15.1451 16.9497 15.5356L14.1213 18.364ZM14.1213 14.1214C12.9497 15.293 12.9497 17.1925 14.1213 18.364L16.9497 15.5356C17.3403 15.9261 17.3403 16.5593 16.9497 16.9498L14.1213 14.1214ZM14.7716 13.1481C14.6209 13.5121 14.3999 13.8428 14.1213 14.1214L16.9497 16.9498C17.5998 16.2998 18.1154 15.5281 18.4672 14.6789L14.7716 13.1481ZM15 12.0001C15 12.394 14.9224 12.7842 14.7716 13.1481L18.4672 14.6789C18.8189 13.8296 19 12.9193 19 12.0001H15ZM14.7716 10.852C14.9224 11.216 15 11.6061 15 12.0001H19C19 11.0808 18.8189 10.1706 18.4672 9.32129L14.7716 10.852ZM14.1213 9.87876C14.3999 10.1573 14.6209 10.4881 14.7716 10.852L18.4672 9.3213C18.1154 8.47202 17.5998 7.70034 16.9497 7.05033L14.1213 9.87876ZM14.1213 5.63612C12.9497 6.80769 12.9497 8.70719 14.1213 9.87876L16.9497 7.05033C17.3403 7.44086 17.3403 8.07402 16.9497 8.46454L14.1213 5.63612ZM18.366 2.9738C18.0899 3.45209 17.4783 3.61597 17 3.33983L19 -0.124276C17.5651 -0.952704 15.7303 -0.461077 14.9019 0.9738L18.366 2.9738ZM18 1.60777C18.4783 1.88392 18.6422 2.49551 18.366 2.9738L14.9019 0.973801C14.0735 2.40867 14.5651 4.24345 16 5.07188L18 1.60777ZM22.3923 6.00008C21.3391 4.17585 19.8242 2.66099 18 1.60777L16 5.07188C17.2162 5.77402 18.2261 6.78393 18.9282 8.00008L22.3923 6.00008ZM24 12.0001C24 9.89364 23.4455 7.82431 22.3923 6.00008L18.9282 8.00008C19.6303 9.21623 20 10.5958 20 12.0001H24ZM22.3923 18.0001C23.4455 16.1758 24 14.1065 24 12.0001H20C20 13.4044 19.6303 14.7839 18.9282 16.0001L22.3923 18.0001ZM18 22.3924C19.8242 21.3392 21.3391 19.8243 22.3923 18.0001L18.9282 16.0001C18.2261 17.2162 17.2162 18.2261 16 18.9283L18 22.3924ZM18.366 21.0264C18.6422 21.5047 18.4783 22.1162 18 22.3924L16 18.9283C14.5651 19.7567 14.0735 21.5915 14.9019 23.0264L18.366 21.0264ZM17 20.6603C17.4783 20.3842 18.0899 20.5481 18.366 21.0264L14.9019 23.0264C15.7304 24.4612 17.5651 24.9529 19 24.1244L17 20.6603ZM20.6603 17.0001C19.7826 18.5203 18.5202 19.7827 17 20.6603L19 24.1244C21.1283 22.8957 22.8956 21.1283 24.1244 19.0001L20.6603 17.0001ZM22 12.0001C22 13.7554 21.5379 15.4799 20.6603 17.0001L24.1244 19.0001C25.3531 16.8718 26 14.4576 26 12.0001H22ZM20.6603 7.00008C21.5379 8.52027 22 10.2447 22 12.0001H26C26 9.54257 25.3531 7.12835 24.1244 5.00008L20.6603 7.00008ZM17 3.33983C18.5202 4.21751 19.7826 5.47989 20.6603 7.00008L24.1244 5.00008C22.8956 2.87181 21.1283 1.10448 19 -0.124277L17 3.33983ZM2 8.00008C2 8.55236 1.55229 9.00008 0.999999 9.00008V5.00008C-0.656857 5.00008 -2 6.34323 -2 8.00008H2ZM1 15.0001C1.55229 15.0001 2 15.4478 2 16.0001H-2C-2 17.6569 -0.656855 19.0001 1 19.0001V15.0001ZM8.55344 15.8551C7.9929 15.307 7.24007 15.0001 6.45609 15.0001V19.0001C6.19477 19.0001 5.94382 18.8978 5.75697 18.7151L8.55344 15.8551ZM11 20.6236C11 19.7381 12.066 19.2895 12.6991 19.9086L9.90265 22.7686C11.8021 24.6258 15 23.2801 15 20.6236H11ZM5.75677 5.28507C5.94362 5.10238 6.19456 5.00008 6.45589 5.00008V9.00008C7.23986 9.00008 7.99269 8.69319 8.55324 8.1451L5.75677 5.28507ZM12.6991 4.09135C12.066 4.71042 11 4.26185 11 3.37635H15C15 0.719851 11.8021 -0.625874 9.90265 1.23133L12.6991 4.09135Z" fill="DimGrey" mask="url(#path-1-inside-1_483_650)"/>
    </svg>